# xmcd
#
# Track frame offsets:
#	150
#	10618
#	24030
#	38992
#	53860
#	70373
#	79931
#	93655
#	104497
#	116355
#	132022
#	145225
#	156745
#
# Disc length: 2264 seconds
#
# Revision: 1
# Processed by: cddbd v1.5.2PL0 Copyright (c) Steve Scherf et al.
# Submitted via: audiograbber 1.83.01
#
DISCID=ab08d60d
DTITLE=Dailey and Vincent - Dailey and Vincent
DYEAR=2008
DGENRE=Bluegrass
TTITLE0=Sweet Carrie
TTITLE1=More Than a Name on a Wall
TTITLE2=Cumberland River
TTITLE3=River of Time
TTITLE4=By the Mark
TTITLE5=Poor Boy Workin' Blues
TTITLE6=Take Me Back (and Leave Me There)
TTITLE7=My Savior Walks With MeToday
TTITLE8=Don't You Call My Name
TTITLE9=I Believe
TTITLE10=Music of the Mountains
TTITLE11=Place on Calvary
TTITLE12=Brother Moses (Bonus Track)
EXTD=
EXTT0=
EXTT1=
EXTT2=
EXTT3=
EXTT4=
EXTT5=
EXTT6=
EXTT7=
EXTT8=
EXTT9=
EXTT10=
EXTT11=
EXTT12=
PLAYORDER=
